<svg width="14" height="13" viewBox="0 0 14 13" fill="none" xmlns="http://www.w3.org/2000/svg">
<path d="M4.45961 10.4676C4.45961 10.5213 4.39778 10.5644 4.31983 10.5644C4.23112 10.5724 4.16929 10.5294 4.16929 10.4676C4.16929 10.4138 4.23112 10.3708 4.30907 10.3708C4.38972 10.3627 4.45961 10.4058 4.45961 10.4676ZM3.6236 10.3466C3.60478 10.4004 3.65855 10.4622 3.73919 10.4783C3.80908 10.5052 3.88972 10.4783 3.90585 10.4246C3.92198 10.3708 3.87091 10.309 3.79026 10.2848C3.72037 10.266 3.64242 10.2929 3.6236 10.3466ZM4.81175 10.3009C4.7338 10.3197 4.68004 10.3708 4.6881 10.4326C4.69616 10.4864 4.76606 10.5213 4.8467 10.5025C4.92466 10.4837 4.97842 10.4326 4.97035 10.3789C4.96229 10.3278 4.88971 10.2929 4.81175 10.3009ZM6.58054 0C2.85211 0 0 2.8306 0 6.55904C0 9.54018 1.87632 12.0912 4.55638 12.989C4.90046 13.0509 5.02143 12.8385 5.02143 12.6638C5.02143 12.4971 5.01336 11.5778 5.01336 11.0133C5.01336 11.0133 3.13167 11.4165 2.73652 10.2122C2.73652 10.2122 2.43007 9.42996 1.98922 9.22835C1.98922 9.22835 1.37363 8.80632 2.03223 8.81438C2.03223 8.81438 2.70157 8.86814 3.06984 9.50792C3.65855 10.5455 4.64509 10.2472 5.02949 10.0697C5.09132 9.63964 5.26605 9.34125 5.45959 9.16384C3.95693 8.99717 2.44082 8.77943 2.44082 6.19345C2.44082 5.45422 2.64512 5.08325 3.07522 4.61014C3.00533 4.43542 2.77684 3.715 3.14511 2.7849C3.70693 2.61017 4.99992 3.5107 4.99992 3.5107C5.53755 3.36016 6.1155 3.28221 6.68807 3.28221C7.26064 3.28221 7.83859 3.36016 8.37621 3.5107C8.37621 3.5107 9.66921 2.60749 10.231 2.7849C10.5993 3.71768 10.3708 4.43542 10.3009 4.61014C10.731 5.08594 10.9945 5.4569 10.9945 6.19345C10.9945 8.7875 9.41115 8.99448 7.90848 9.16384C8.15579 9.3762 8.36546 9.77942 8.36546 10.4111C8.36546 11.317 8.3574 12.438 8.3574 12.6584C8.3574 12.8331 8.48105 13.0455 8.82244 12.9837C11.5106 12.0912 13.3331 9.54018 13.3331 6.55904C13.3331 2.8306 10.309 0 6.58054 0ZM2.61286 9.27136C2.57792 9.29824 2.58598 9.36007 2.63168 9.41115C2.67469 9.45415 2.73652 9.47297 2.77146 9.43803C2.80641 9.41115 2.79834 9.34932 2.75265 9.29824C2.70964 9.25523 2.64781 9.23642 2.61286 9.27136ZM2.32254 9.05362C2.30373 9.08857 2.33061 9.13158 2.38437 9.15846C2.42738 9.18534 2.48114 9.17728 2.49996 9.13964C2.51878 9.1047 2.4919 9.06169 2.43813 9.03481C2.38437 9.01868 2.34136 9.02674 2.32254 9.05362ZM3.1935 10.0106C3.15049 10.0455 3.16662 10.1262 3.22844 10.1773C3.29027 10.2391 3.36823 10.2472 3.40317 10.2041C3.43812 10.1692 3.42199 10.0886 3.36823 10.0375C3.30909 9.97565 3.22844 9.96759 3.1935 10.0106ZM2.88705 9.61544C2.84404 9.64232 2.84404 9.71222 2.88705 9.77404C2.93006 9.83587 3.00264 9.86275 3.03759 9.83587C3.0806 9.80092 3.0806 9.73103 3.03759 9.66921C2.99995 9.60738 2.93006 9.5805 2.88705 9.61544Z" fill="#282828"/>
</svg>
