<svg width="13" height="13" viewBox="0 0 13 13" fill="none" xmlns="http://www.w3.org/2000/svg">
<path d="M12.0714 0H0.92567C0.414955 0 0 0.420759 0 0.937277V12.0627C0 12.5792 0.414955 13 0.92567 13H12.0714C12.5821 13 13 12.5792 13 12.0627V0.937277C13 0.420759 12.5821 0 12.0714 0ZM3.92902 11.1429H2.00223V4.93884H3.93192V11.1429H3.92902ZM2.96563 4.09152C2.34754 4.09152 1.84844 3.58951 1.84844 2.97433C1.84844 2.35915 2.34754 1.85714 2.96563 1.85714C3.5808 1.85714 4.08281 2.35915 4.08281 2.97433C4.08281 3.59241 3.58371 4.09152 2.96563 4.09152ZM11.1516 11.1429H9.22478V8.125C9.22478 7.40536 9.21027 6.47969 8.22366 6.47969C7.21964 6.47969 7.06585 7.26317 7.06585 8.07277V11.1429H5.13906V4.93884H6.9875V5.78616H7.01362C7.27187 5.29866 7.90156 4.78504 8.83884 4.78504C10.7888 4.78504 11.1516 6.07054 11.1516 7.74196V11.1429Z" fill="#282828"/>
</svg>
