<svg width="13" height="11" viewBox="0 0 13 11" fill="none" xmlns="http://www.w3.org/2000/svg">
<path d="M6.5 7.8C5.46 7.8 4.42 6.89 3.9 6.5C1.3 4.68 0.52 4.03 0 3.64V9.1C0 9.81784 0.582156 10.4 1.3 10.4H11.7C12.4178 10.4 13 9.81784 13 9.1V3.64C12.48 4.03 11.7 4.68 9.1 6.5C8.58 6.89 7.54 7.8 6.5 7.8ZM11.7 0H1.3C0.582156 0 0 0.582157 0 1.3V1.95C1.04 2.73 0.91 2.73 4.68 5.46C5.07 5.72 5.85 6.5 6.5 6.5C7.15 6.5 7.93 5.72 8.32 5.59C12.09 2.86 11.96 2.86 13 2.08V1.3C13 0.582157 12.4178 0 11.7 0Z" fill="#282828"/>
</svg>
